<?xml version="1.0" encoding="UTF-8" standalone="no"?>
<!-- Generator: Adobe Illustrator 19.0.0, SVG Export Plug-In . SVG Version: 6.00 Build 0)  -->

<svg
   xmlns:dc="http://purl.org/dc/elements/1.1/"
   xmlns:cc="http://creativecommons.org/ns#"
   xmlns:rdf="http://www.w3.org/1999/02/22-rdf-syntax-ns#"
   xmlns:svg="http://www.w3.org/2000/svg"
   xmlns="http://www.w3.org/2000/svg"
   xmlns:sodipodi="http://sodipodi.sourceforge.net/DTD/sodipodi-0.dtd"
   xmlns:inkscape="http://www.inkscape.org/namespaces/inkscape"
   version="1.1"
   id="Capa_1"
   x="0px"
   y="0px"
   viewBox="0 0 55 55"
   style="enable-background:new 0 0 55 55;"
   xml:space="preserve"
   inkscape:version="0.91 r13725"
   sodipodi:docname="ikony.svg"><metadata
     id="metadata45"><rdf:RDF><cc:Work
         rdf:about=""><dc:format>image/svg+xml</dc:format><dc:type
           rdf:resource="http://purl.org/dc/dcmitype/StillImage" /><dc:title></dc:title></cc:Work></rdf:RDF></metadata><defs
     id="defs43" /><sodipodi:namedview
     pagecolor="#ffffff"
     bordercolor="#666666"
     borderopacity="1"
     objecttolerance="10"
     gridtolerance="10"
     guidetolerance="10"
     inkscape:pageopacity="0"
     inkscape:pageshadow="2"
     inkscape:window-width="1366"
     inkscape:window-height="741"
     id="namedview41"
     showgrid="false"
     inkscape:snap-page="true"
     showguides="false"
     inkscape:zoom="3.7335238"
     inkscape:cx="-59.263495"
     inkscape:cy="57.220013"
     inkscape:window-x="0"
     inkscape:window-y="27"
     inkscape:window-maximized="1"
     inkscape:current-layer="layer3" /><g
     id="g11" /><g
     id="g13" /><g
     id="g15" /><g
     id="g17" /><g
     id="g19" /><g
     id="g21" /><g
     id="g23" /><g
     id="g25" /><g
     id="g27" /><g
     id="g29" /><g
     id="g31" /><g
     id="g33" /><g
     id="g35" /><g
     id="g37" /><g
     id="g39" /><g
     inkscape:groupmode="layer"
     id="layer1"
     inkscape:label="tło megafon"
     style="display:inline"><rect
       style="fill:#ff5555;fill-opacity:1;stroke:none;stroke-width:1;stroke-linecap:square;stroke-linejoin:miter;stroke-miterlimit:0;stroke-dasharray:none;stroke-opacity:1"
       id="rect3375"
       width="90"
       height="65"
       x="-25.49242"
       y="-4.9621229" /><circle
       style="fill:#484537;fill-opacity:1;stroke:none;stroke-width:1;stroke-linecap:square;stroke-linejoin:miter;stroke-miterlimit:0;stroke-dasharray:none;stroke-opacity:1"
       id="path4246"
       cx="19.50758"
       cy="27.537876"
       r="26.136364" /></g><g
     inkscape:groupmode="layer"
     id="layer3"
     inkscape:label="tło polityk"
     style="display:inline"><rect
       style="display:inline;fill:#87de87;fill-opacity:1;stroke:none;stroke-width:1;stroke-linecap:square;stroke-linejoin:miter;stroke-miterlimit:0;stroke-dasharray:none;stroke-opacity:1"
       id="rect3375-6"
       width="90"
       height="65"
       x="-122.40676"
       y="-40.175373"
       inkscape:export-xdpi="900"
       inkscape:export-ydpi="900" /><circle
       style="display:inline;fill:#484537;fill-opacity:1;stroke:none;stroke-width:1;stroke-linecap:square;stroke-linejoin:miter;stroke-miterlimit:0;stroke-dasharray:none;stroke-opacity:1"
       id="path4246-7"
       cx="-77.406769"
       cy="-7.6753736"
       r="26.136364"
       inkscape:export-xdpi="900"
       inkscape:export-ydpi="900" /></g><g
     inkscape:groupmode="layer"
     id="layer4"
     inkscape:label="polityk"><g
       style="display:inline"
       id="g3668"
       transform="matrix(0.10208027,0,0,0.10208027,-103.51782,-33.977307)"
       inkscape:export-xdpi="900"
       inkscape:export-ydpi="900"><path
         id="path3552"
         d="m 511.999,255.406 c 0.144,64.931 -23.883,124.266 -63.632,169.489 -8.583,9.771 -17.909,18.886 -27.869,27.247 -42.414,35.63 -96.564,57.736 -155.832,59.713 -2.676,0.089 -5.374,0.133 -8.072,0.144 -2.842,0.011 -5.663,-0.033 -8.483,-0.122 C 188.954,510.089 134.815,488.216 92.323,452.831 82.352,444.537 73.015,435.488 64.41,425.784 24.461,380.739 0.145,321.515 0.001,256.584 -0.321,115.195 114.03,0.323 255.417,0.001 396.793,-0.321 511.677,114.019 511.999,255.406 Z"
         style="fill:#42577f"
         inkscape:connector-curvature="0" /><path
         id="path3554"
         d="m 420.494,452.14 c -34.608,29.068 -77.022,49.142 -123.678,56.615 -7.117,1.144 -14.345,1.987 -21.651,2.531 -3.475,0.255 -6.984,0.444 -10.504,0.566 -2.676,0.089 -5.374,0.133 -8.072,0.144 -2.842,0.011 -5.663,-0.033 -8.483,-0.122 -4.219,-0.133 -8.405,-0.355 -12.569,-0.688 -6.606,-0.522 -13.135,-1.299 -19.586,-2.309 -34.442,-5.407 -66.608,-17.698 -95.054,-35.419 -0.044,-0.022 -0.078,-0.044 -0.122,-0.078 -1.244,-0.777 -2.487,-1.554 -3.708,-2.354 -8.616,-5.574 -16.888,-11.658 -24.749,-18.198 20.163,-20.807 44.246,-37.784 71.071,-49.764 4.197,-1.876 8.472,-3.631 12.813,-5.252 0.266,-0.111 0.544,-0.211 0.811,-0.311 4.019,-1.51 8.105,-2.887 12.236,-4.164 4.83,-1.488 9.726,-2.82 14.678,-3.986 8.616,-2.032 17.41,-3.575 26.37,-4.597 5.874,-0.688 11.803,-1.133 17.809,-1.355 2.687,-0.111 5.385,-0.155 8.105,-0.167 2.831,-0.011 5.651,0.033 8.449,0.144 19.808,0.666 38.983,3.853 57.203,9.249 4.563,1.355 9.071,2.842 13.513,4.475 4.697,1.721 9.327,3.586 13.879,5.596 26.758,11.825 50.819,28.624 71.015,49.22 0.068,0.08 0.146,0.148 0.224,0.224 z"
         style="fill:#cccccc"
         inkscape:connector-curvature="0" /><path
         id="path3556"
         d="m 321.958,401.753 c -11.814,12.413 -12.58,17.421 -28.313,23.428 -0.733,0.289 -1.466,0.566 -2.198,0.822 -11.17,4.008 -23.083,6.151 -35.441,6.151 -12.369,0 -24.283,-2.143 -35.441,-6.151 -0.744,-0.255 -1.477,-0.533 -2.21,-0.822 -15.567,-5.929 -17.909,-12.868 -29.634,-25.093 4.019,-1.51 -3.597,-5.474 0.533,-6.751 4.83,-1.488 9.726,-2.82 14.678,-3.986 8.616,-2.032 17.41,-3.575 26.37,-4.597 5.874,-0.688 11.803,-1.133 17.809,-1.355 2.687,-0.111 5.385,-0.155 8.105,-0.167 2.831,-0.011 5.651,0.033 8.449,0.144 19.808,0.666 38.983,3.853 57.203,9.249 4.565,1.356 -4.351,7.496 0.09,9.128 z"
         style="fill:#e0b775"
         inkscape:connector-curvature="0" /><path
         id="path3558"
         d="m 230.306,384.757 -11.947,14.645 c 0,0 -63.077,25.726 -97.463,74.058 -10.004,-6.218 -19.553,-13.124 -28.568,-20.63 29.878,-30.822 68.373,-53.273 111.608,-63.477 8.617,-2.031 17.41,-3.575 26.37,-4.596 z"
         style="fill:#e6e6e6"
         inkscape:connector-curvature="0" /><path
         id="path3560"
         d="m 260.925,460.302 15.311,50.986 c -3.475,0.255 -6.984,0.444 -10.504,0.566 -2.676,0.089 -5.374,0.133 -8.072,0.144 -2.842,0.011 -5.663,-0.033 -8.483,-0.122 -4.219,-0.133 -8.405,-0.355 -12.569,-0.688 l 15.278,-50.886 -10.548,-15.8 -10.059,-15.067 7.284,-7.284 c 5.374,3.864 11.336,6.562 17.843,7.284 6.506,-0.722 12.469,-3.42 17.843,-7.284 l 7.284,7.284 -10.059,15.067 -10.549,15.8 z"
         style="fill:#a5795b"
         inkscape:connector-curvature="0" /><g
         id="g3562"><path
           id="path3564"
           d="m 215.952,508.877 c -14.401,-2.265 -28.402,-5.729 -41.892,-10.293 -18.798,-6.34 -36.607,-14.812 -53.162,-25.126 -0.044,-0.022 -0.078,-0.044 -0.122,-0.078 -1.244,-0.777 -2.487,-1.554 -3.708,-2.354 -8.616,-5.574 -16.888,-11.658 -24.749,-18.198 15.977,-16.488 34.42,-36.13 54.738,-47.21 5.318,-2.909 10.77,-0.067 16.333,-2.554 4.197,-1.876 8.472,-3.631 12.813,-5.252 l 39.749,111.065 z"
           style="fill:#666666"
           inkscape:connector-curvature="0" /><path
           id="path3566"
           d="m 420.494,452.14 c -34.608,29.068 -77.022,49.142 -123.678,56.615 l 52.44,-111.608 c 26.758,11.825 50.819,34.175 71.015,54.772 0.067,0.077 0.145,0.145 0.223,0.221 z"
           style="fill:#666666"
           inkscape:connector-curvature="0" /></g><g
         id="g3568"><path
           id="path3570"
           d="m 256.406,429.436 -41.77,41.77 -40.393,-81.852 30.756,-16.655 c 0,0 12.058,34.009 33.565,49.453 5.374,3.864 11.336,6.562 17.842,7.284 z"
           style="fill:#f2f2f2"
           inkscape:connector-curvature="0" /><path
           id="path3572"
           d="m 338.569,389.353 -40.393,81.852 -41.77,-41.77 c 6.506,-0.722 12.469,-3.42 17.843,-7.284 21.507,-15.444 33.565,-49.453 33.565,-49.453 l 30.755,16.655 z"
           style="fill:#f2f2f2"
           inkscape:connector-curvature="0" /></g><g
         id="g3574"><path
           id="path3576"
           d="m 174.06,498.585 7.628,-23.283 -25.537,0 -9.093,-64.132 -1.455,-10.259 43.646,-23.672 26.703,131.638 c -14.4,-2.265 -28.401,-5.729 -41.892,-10.292 z"
           style="fill:#4d4d4d"
           inkscape:connector-curvature="0" /><path
           id="path3578"
           d="m 338.708,498.585 -7.628,-23.283 25.537,0 9.093,-64.132 1.454,-10.259 -43.646,-23.672 -26.703,131.638 c 14.402,-2.265 28.403,-5.729 41.893,-10.292 z"
           style="fill:#4d4d4d"
           inkscape:connector-curvature="0" /></g><g
         id="g3580"><path
           id="path3582"
           d="m 187.236,242.861 c 0,-17.945 -16.76,-32.492 -37.435,-32.492 -20.675,0 -37.435,14.547 -37.435,32.492 0,17.945 16.76,45.1 37.435,45.1 20.675,0 37.435,-27.155 37.435,-45.1 z"
           style="fill:#efc881"
           inkscape:connector-curvature="0" /><path
           id="path3584"
           d="m 399.639,242.861 c 0,-17.945 -16.76,-32.492 -37.435,-32.492 -20.675,0 -37.435,14.547 -37.435,32.492 0,17.945 16.76,45.1 37.435,45.1 20.675,0 37.435,-27.155 37.435,-45.1 z"
           style="fill:#efc881"
           inkscape:connector-curvature="0" /></g><g
         id="g3586"><path
           id="path3588"
           d="m 385.074,248.223 c 0,-10.589 -6.462,-19.174 -14.434,-19.174 -7.972,0 -14.434,8.584 -14.434,19.174 0,10.59 6.462,11.957 14.434,11.957 7.972,0 14.434,-1.368 14.434,-11.957 z"
           style="fill:#e0b775"
           inkscape:connector-curvature="0" /><path
           id="path3590"
           d="m 155.794,248.223 c 0,-10.589 -6.462,-19.174 -14.434,-19.174 -7.972,0 -14.434,8.584 -14.434,19.174 0,10.59 6.462,11.957 14.434,11.957 7.973,0 14.434,-1.368 14.434,-11.957 z"
           style="fill:#e0b775"
           inkscape:connector-curvature="0" /></g><path
         id="path3592"
         d="m 371.34,211.959 0,66.741 c 0,12.602 -1.654,24.793 -4.741,36.296 -1.133,4.23 -2.443,8.35 -3.964,12.369 -12.524,33.676 -37.706,60.101 -68.995,72.037 -0.733,0.289 -1.466,0.566 -2.198,0.822 -11.17,4.008 -23.083,6.151 -35.441,6.151 -12.369,0 -24.282,-2.143 -35.441,-6.151 -0.744,-0.255 -1.477,-0.533 -2.21,-0.822 -23.239,-8.86 -43.091,-25.715 -56.915,-47.61 -4.797,-7.583 -8.86,-15.766 -12.08,-24.427 -1.521,-4.019 -2.831,-8.139 -3.953,-12.369 -3.098,-11.503 -4.752,-23.694 -4.752,-36.296 l 0,-66.741 c 0,-2.287 0.056,-4.552 0.167,-6.806 1.776,-37.44 18.12,-70.605 42.88,-92.667 5.851,-5.218 12.169,-9.815 18.875,-13.701 12.247,-7.106 25.781,-11.836 40.127,-13.657 4.364,-0.555 8.805,-0.844 13.302,-0.844 31.844,0 60.679,14.29 81.552,37.406 20.874,23.095 33.787,55.017 33.787,90.269 z"
         style="fill:#f9d387"
         inkscape:connector-curvature="0" /><g
         id="g3594"><path
           id="path3596"
           d="m 161.097,309.145 -0.155,-1.189 c -1.619,-12.394 -8.703,-23.084 -18.896,-28.517 l -1.389,-0.741 c 0,12.608 1.651,24.795 4.744,36.301 1.127,4.223 2.438,8.343 3.958,12.361 12.531,33.675 37.71,60.11 68.997,72.036 -6.144,-27.8 -20.859,-50.567 -39.985,-62.658 -9.263,-5.857 -15.747,-15.903 -17.274,-27.593 z"
           style="fill:#efc881"
           inkscape:connector-curvature="0" /><path
           id="path3598"
           d="m 351.062,307.957 -0.155,1.189 c -1.527,11.689 -8.011,21.737 -17.276,27.595 -19.125,12.091 -33.84,34.858 -39.984,62.658 31.287,-11.926 56.466,-38.361 68.997,-72.036 1.52,-4.019 2.831,-8.14 3.958,-12.361 3.093,-11.505 4.744,-23.693 4.744,-36.301 l -1.389,0.741 c -10.193,5.43 -17.277,16.12 -18.895,28.515 z"
           style="fill:#efc881"
           inkscape:connector-curvature="0" /></g><path
         id="path3600"
         d="m 242.7,85.127 -39.549,48.199 c 0,0 -32.144,57.037 -62.333,71.826 1.777,-37.44 18.12,-70.605 42.88,-92.667 5.851,-5.218 12.169,-9.815 18.875,-13.701 12.247,-7.106 25.781,-11.836 40.127,-13.657 z"
         style="fill:#4d4d4d"
         inkscape:connector-curvature="0" /><path
         id="path3602"
         d="M 371.34,211.959 C 354.486,141.066 258.666,169.601 233.128,163.305 207.591,157.01 203.15,133.327 203.15,133.327 l -0.577,-34.542 c 15.966,-9.26 34.142,-14.501 53.428,-14.501 31.844,0 60.679,14.29 81.552,37.406 20.874,23.095 33.787,55.017 33.787,90.269 z"
         style="fill:#666666"
         inkscape:connector-curvature="0" /><g
         id="g3604"><path
           id="path3606"
           d="m 320.202,239.491 0,22.512 c 0,4.213 -3.408,7.62 -7.62,7.62 -4.063,0 -7.381,-3.179 -7.6,-7.193 -0.01,-0.139 -0.01,-0.289 -0.01,-0.427 l 0,-22.512 c 0,-4.213 3.408,-7.62 7.61,-7.62 2.106,0 4.014,0.854 5.384,2.225 0.984,0.984 1.699,2.235 2.026,3.626 0.14,0.567 0.21,1.163 0.21,1.769 z"
           style="fill:#4d4d4d"
           inkscape:connector-curvature="0" /><path
           id="path3608"
           d="m 199.406,269.622 0,0 c -4.206,0 -7.617,-3.41 -7.617,-7.617 l 0,-22.518 c 0,-4.206 3.41,-7.617 7.617,-7.617 l 0,0 c 4.206,0 7.617,3.41 7.617,7.617 l 0,22.518 c 0,4.207 -3.411,7.617 -7.617,7.617 z"
           style="fill:#4d4d4d"
           inkscape:connector-curvature="0" /></g><g
         id="g3610"><path
           id="path3612"
           d="m 331.092,211.886 c 0,-10.22 -8.285,-18.506 -18.506,-18.506 -10.22,0 -18.506,8.285 -18.506,18.506 l 0,0 c 10.222,-10.221 26.792,-10.221 37.012,0 l 0,0 z"
           style="fill:#68635b"
           inkscape:connector-curvature="0" /><path
           id="path3614"
           d="m 217.912,211.886 c 0,-10.22 -8.285,-18.506 -18.506,-18.506 -10.22,0 -18.506,8.285 -18.506,18.506 l 0,0 c 10.221,-10.221 26.792,-10.221 37.012,0 l 0,0 z"
           style="fill:#68635b"
           inkscape:connector-curvature="0" /></g><g
         id="g3616"><path
           id="path3618"
           d="m 320.196,239.491 0,22.512 c 0,4.213 -3.408,7.62 -7.62,7.62 -4.063,0 -7.381,-3.179 -7.6,-7.193 8.524,-8.763 12.845,-18.11 15.01,-24.707 0.141,0.566 0.21,1.162 0.21,1.768 z"
           style="fill:#666666"
           inkscape:connector-curvature="0" /><path
           id="path3620"
           d="m 207.016,239.491 0,22.512 c 0,4.213 -3.408,7.62 -7.62,7.62 -4.064,0 -7.381,-3.179 -7.6,-7.193 8.524,-8.763 12.845,-18.11 15.01,-24.707 0.141,0.566 0.21,1.162 0.21,1.768 z"
           style="fill:#666666"
           inkscape:connector-curvature="0" /></g><path
         id="path3622"
         d="m 274.086,293.124 c 0,-0.567 -0.114,-1.121 -0.331,-1.658 -2.302,-5.685 -3.93,-11.609 -3.882,-17.743 0.006,-0.685 0.008,-1.383 0.008,-2.095 0,-34.249 -6.216,-54.758 -13.882,-54.758 -7.667,0 -13.882,20.51 -13.882,54.758 0,0.712 0.002,1.41 0.008,2.095 0.049,6.133 -1.581,12.058 -3.882,17.743 -0.218,0.536 -0.331,1.09 -0.331,1.658 0,2.796 2.754,5.276 7.016,6.867 2.535,7.915 6.55,9.008 11.071,9.008 4.521,0 8.537,-1.093 11.071,-9.008 4.262,-1.591 7.016,-4.071 7.016,-6.867 z"
         style="fill:#e0b775"
         inkscape:connector-curvature="0" /><path
         id="path3624"
         d="m 297.417,332.599 c -0.011,0.111 -0.011,0.211 -0.022,0.322 -0.044,0.633 -0.111,1.266 -0.211,1.888 -0.078,0.489 -0.167,0.966 -0.278,1.443 -0.078,0.344 -0.167,0.688 -0.255,1.033 -0.366,1.321 -0.855,2.609 -1.466,3.864 -1.943,4.064 -5.063,7.728 -9.071,10.77 -7.572,5.729 -18.254,9.304 -30.112,9.304 -11.858,0 -22.539,-3.575 -30.112,-9.304 -4.008,-3.042 -7.128,-6.706 -9.071,-10.77 -0.611,-1.255 -1.099,-2.543 -1.466,-3.864 -0.089,-0.344 -0.178,-0.688 -0.255,-1.033 -0.111,-0.477 -0.2,-0.955 -0.278,-1.443 -0.1,-0.622 -0.167,-1.255 -0.211,-1.888 -0.011,-0.111 -0.011,-0.211 -0.022,-0.322 1.454,0.289 2.931,0.566 4.441,0.822 11.159,1.932 23.705,3.009 36.973,3.009 13.268,0 25.815,-1.077 36.973,-3.009 1.512,-0.256 2.988,-0.534 4.443,-0.822 z"
         style="fill:#4d4d4d"
         inkscape:connector-curvature="0" /><path
         id="path3626"
         d="m 297.417,332.599 c -0.011,0.111 -0.011,0.211 -0.022,0.322 -0.044,0.633 -0.111,1.266 -0.211,1.888 -0.078,0.489 -0.167,0.966 -0.278,1.443 -0.078,0.344 -0.167,0.688 -0.255,1.033 -0.366,1.321 -0.855,2.609 -1.466,3.864 -3.997,0.622 -8.161,1.155 -12.458,1.577 -8.449,0.844 -17.421,1.288 -26.725,1.288 -9.304,0 -18.276,-0.444 -26.725,-1.288 -4.297,-0.422 -8.461,-0.955 -12.458,-1.577 -0.611,-1.255 -1.099,-2.543 -1.466,-3.864 -0.089,-0.344 -0.178,-0.688 -0.255,-1.033 -0.111,-0.477 -0.2,-0.955 -0.278,-1.443 -0.1,-0.622 -0.167,-1.255 -0.211,-1.888 -0.011,-0.111 -0.011,-0.211 -0.022,-0.322 1.454,0.289 2.931,0.566 4.441,0.822 11.159,1.932 23.705,3.009 36.973,3.009 13.268,0 25.815,-1.077 36.973,-3.009 1.512,-0.256 2.988,-0.534 4.443,-0.822 z"
         style="fill:#f2f2f2"
         inkscape:connector-curvature="0" /><path
         id="path3628"
         d="m 292.976,333.42 c -1.81,2.587 -4.13,4.952 -6.862,7.028 -1.066,0.811 -2.198,1.577 -3.386,2.276 -8.449,0.844 -17.421,1.288 -26.725,1.288 -9.304,0 -18.276,-0.444 -26.725,-1.288 -1.188,-0.699 -2.321,-1.466 -3.386,-2.276 -2.731,-2.076 -5.052,-4.441 -6.862,-7.028 11.159,1.932 23.705,3.009 36.973,3.009 13.268,0 25.814,-1.077 36.973,-3.009 z"
         style="fill:#ffffff"
         inkscape:connector-curvature="0" /><path
         id="path3630"
         d="m 277.76,370.074 c 0,-4.541 -9.743,0.484 -21.763,0.484 -12.02,0 -21.763,-5.024 -21.763,-0.484 0,4.54 9.743,8.222 21.763,8.222 12.019,-10e-4 21.763,-3.682 21.763,-8.222 z"
         style="fill:#efc881"
         inkscape:connector-curvature="0" /><g
         id="g3632" /><g
         id="g3634" /><g
         id="g3636" /><g
         id="g3638" /><g
         id="g3640" /><g
         id="g3642" /><g
         id="g3644" /><g
         id="g3646" /><g
         id="g3648" /><g
         id="g3650" /><g
         id="g3652" /><g
         id="g3654" /><g
         id="g3656" /><g
         id="g3658" /><g
         id="g3660" /></g></g><g
     inkscape:groupmode="layer"
     id="layer2"
     inkscape:label="mikrofon"
     style="display:inline"><g
       transform="matrix(0.68319559,0,0,0.68319559,-1.2802989,8.7499984)"
       id="g4213"><path
         inkscape:connector-curvature="0"
         id="path3"
         d="m 51,52 0,0 c -2.2,0 -4,-1.8 -4,-4 L 47,7 c 0,-2.2 1.8,-4 4,-4 l 0,0 c 2.2,0 4,1.8 4,4 l 0,41 c 0,2.2 -1.8,4 -4,4 z"
         style="fill:#eb7937" /><polygon
         id="polygon5"
         points="47,45 6,32 6,23 47,10 "
         style="fill:#ebba16" /><path
         inkscape:connector-curvature="0"
         id="path7"
         d="m 27.263,46 c -0.416,0 -0.829,-0.065 -1.227,-0.194 L 11.766,41.183 C 10.753,40.856 9.926,40.15 9.44,39.196 8.953,38.242 8.866,37.159 9.194,36.145 c 0.536,-1.654 2.068,-2.767 3.813,-2.767 0.415,0 0.828,0.065 1.225,0.194 l 14.271,4.623 c 1.013,0.328 1.839,1.034 2.326,1.988 0.486,0.953 0.573,2.036 0.245,3.05 C 30.538,44.888 29.007,46 27.263,46 Z M 13.007,35.378 c -0.86,0 -1.646,0.569 -1.91,1.384 -0.164,0.505 -0.119,1.046 0.125,1.523 0.243,0.479 0.656,0.831 1.161,0.995 l 14.271,4.623 c 1.025,0.33 2.191,-0.276 2.519,-1.287 0.164,-0.505 0.119,-1.046 -0.125,-1.523 -0.243,-0.478 -0.656,-0.831 -1.161,-0.995 L 13.616,35.475 c -0.198,-0.064 -0.403,-0.097 -0.609,-0.097 z"
         style="fill:#c7cac7" /><path
         inkscape:connector-curvature="0"
         id="path9"
         d="m 3,36 0,0 C 1.35,36 0,34.65 0,33 L 0,22 c 0,-1.65 1.35,-3 3,-3 l 0,0 c 1.65,0 3,1.35 3,3 l 0,11 c 0,1.65 -1.35,3 -3,3 z"
         style="fill:#424a60" /></g></g></svg>